# xmcd
#
# Track frame offsets:
#	182
#	11755
#	23032
#	37115
#	49102
#	63935
#	76247
#	91137
#	105430
#	119612
#	132982
#	152577
#	165557
#	178375
#	192247
#
# Disc length: 2725 seconds
#
# Revision: 3
# Processed by: cddbd v1.5.1PL2 Copyright (c) Steve Scherf et al.
# Submitted via: audiograbber 1.83.01
#
DISCID=bf0aa30f
DTITLE=Various Artist - Les rythmes de la Nouvelle-Orléans
DYEAR=1900
DGENRE=Jazz New-Orleans
TTITLE0=Louis Armstrong - Bye and bye
TTITLE1=Sister Rosetta Tharpe and Marie Knight - Up above my head, I hear music
TTITLE2=Kid Ory - Careless love
TTITLE3=Josh White - Joshua fit the battle
TTITLE4=Sidney Bechet - Make me a pallet on the floor
TTITLE5=Sister Myrtle - Jesus at the well
TTITLE6=King Oliver - Frankie and Johnny
TTITLE7=Louis Armstrong and Lynn Murray - Nobody knows
TTITLE8=Kid Ory - 1919 Rag
TTITLE9=Sweet Peas - I got a man in the bama mines
TTITLE10=Louis Armstrong - Steak face
TTITLE11=Bill Landford - Lord I've tried
TTITLE12=Bunk Johnson - Oh Maryland my Maryland
TTITLE13=Kid Ory - Oh didn't he ramble
TTITLE14=Louis Armstrong - When the saints
EXTD=
EXTT0=
EXTT1=
EXTT2=
EXTT3=
EXTT4=
EXTT5=
EXTT6=
EXTT7=
EXTT8=
EXTT9=
EXTT10=
EXTT11=
EXTT12=
EXTT13=
EXTT14=
PLAYORDER=
